<svg width="32" height="33" viewBox="0 0 32 33" fill="none" xmlns="http://www.w3.org/2000/svg">
<path d="M15.9875 2.46054C8.25938 2.45742 2 8.71367 2 16.4355C2 22.5418 5.91563 27.7324 11.3688 29.6387C12.1031 29.823 11.9906 29.3012 11.9906 28.9449V26.523C7.75 27.0199 7.57813 24.2137 7.29375 23.7449C6.71875 22.7637 5.35938 22.5137 5.76563 22.0449C6.73125 21.548 7.71563 22.1699 8.85625 23.8543C9.68125 25.0762 11.2906 24.8699 12.1063 24.6668C12.2844 23.9324 12.6656 23.2762 13.1906 22.7668C8.79688 21.9793 6.96563 19.298 6.96563 16.1105C6.96563 14.5637 7.475 13.1418 8.475 11.9949C7.8375 10.1043 8.53438 8.48554 8.62813 8.24492C10.4438 8.08242 12.3313 9.54492 12.4781 9.66054C13.5094 9.38242 14.6875 9.23554 16.0063 9.23554C17.3313 9.23554 18.5125 9.38867 19.5531 9.66992C19.9063 9.40117 21.6563 8.14492 23.3438 8.29804C23.4344 8.53867 24.1156 10.1199 23.5156 11.9855C24.5281 13.1355 25.0438 14.5699 25.0438 16.1199C25.0438 19.3137 23.2 21.998 18.7938 22.773C19.1712 23.1442 19.4708 23.5868 19.6753 24.0751C19.8797 24.5634 19.9848 25.0875 19.9844 25.6168V29.1324C20.0094 29.4137 19.9844 29.6918 20.4531 29.6918C25.9875 27.8262 29.9719 22.598 29.9719 16.4387C29.9719 8.71367 23.7094 2.46054 15.9875 2.46054Z" fill="#FBF1CE"/>
</svg>
