<svg width="35" height="35" viewBox="0 0 35 35" fill="none" xmlns="http://www.w3.org/2000/svg">
<path d="M9.00016 10.8787H16.0835C16.4592 10.8787 16.8196 11.0279 17.0852 11.2936C17.3509 11.5593 17.5002 11.9196 17.5002 12.2953C17.5002 12.6711 17.3509 13.0314 17.0852 13.2971C16.8196 13.5627 16.4592 13.712 16.0835 13.712H9.00016C8.62444 13.712 8.2641 13.5627 7.99843 13.2971C7.73275 13.0314 7.5835 12.6711 7.5835 12.2953C7.5835 11.9196 7.73275 11.5593 7.99843 11.2936C8.2641 11.0279 8.62444 10.8787 9.00016 10.8787ZM18.9168 22.212H26.0002C26.3759 22.212 26.7362 22.3613 27.0019 22.6269C27.2676 22.8926 27.4168 23.2529 27.4168 23.6287C27.4168 24.0044 27.2676 24.3647 27.0019 24.6304C26.7362 24.8961 26.3759 25.0453 26.0002 25.0453H18.9168C18.5411 25.0453 18.1808 24.8961 17.9151 24.6304C17.6494 24.3647 17.5002 24.0044 17.5002 23.6287C17.5002 23.2529 17.6494 22.8926 17.9151 22.6269C18.1808 22.3613 18.5411 22.212 18.9168 22.212ZM9.00016 16.5453H26.0002C26.3759 16.5453 26.7362 16.6946 27.0019 16.9603C27.2676 17.2259 27.4168 17.5863 27.4168 17.962C27.4168 18.3377 27.2676 18.6981 27.0019 18.9637C26.7362 19.2294 26.3759 19.3787 26.0002 19.3787H9.00016C8.62444 19.3787 8.2641 19.2294 7.99843 18.9637C7.73275 18.6981 7.5835 18.3377 7.5835 17.962C7.5835 17.5863 7.73275 17.2259 7.99843 16.9603C8.2641 16.6946 8.62444 16.5453 9.00016 16.5453Z" fill="#FBF1CE"/>
</svg>
