<svg width="43" height="66" viewBox="0 0 43 66" fill="none" xmlns="http://www.w3.org/2000/svg">
<path d="M42.2108 2.3276V63.6589C42.2108 64.5175 41.589 65.2188 40.8202 65.2188L1.39057 64.9128C0.6218 64.9128 0 64.2115 0 63.3444V44.894C0 44.027 0.6218 43.3257 1.39057 43.3257L23.5907 43.4277C24.3595 43.4277 24.9813 44.129 24.9813 44.996V48.346C24.9813 49.2046 24.3595 49.9143 23.5907 49.9143L9.13481 49.8123C8.37357 49.8123 7.75554 50.5136 7.75554 51.3807V56.8233C7.75554 57.6819 8.3698 58.3832 9.13481 58.3832L29.1078 58.6935C29.8765 58.6935 30.4983 57.9922 30.4983 57.1251V44.3712C31.1428 44.0992 31.6741 43.5934 31.9907 43.2832C32.311 42.9729 32.8047 42.1568 32.9629 41.6086C33.3737 40.2145 33.3285 39.2157 33.3285 39.2157C33.3285 39.2157 33.3549 37.1798 33.3662 35.7644C33.3775 34.3831 33.6639 33.9921 33.9088 33.6393C34.1613 33.2653 34.7793 32.666 34.7793 32.666C34.7793 32.666 35.3258 32.0667 35.0281 31.6799C34.6286 31.1827 34.1123 31.0509 33.7355 30.4941C33.3624 29.9416 33.385 28.6835 33.385 28.6835C33.385 28.6835 33.4076 25.7423 33.385 25.3895C33.3511 24.9135 33.1325 23.3409 33.0006 22.8606C32.8725 22.3889 32.4919 21.7598 32.0962 21.203C31.7005 20.6547 30.7734 20.1447 30.7734 20.1447L29.9783 19.7834V2.01308C29.9783 1.35003 30.4531 0.81025 31.0335 0.81025H32.6765L40.8428 0.759247C41.6003 0.771998 42.2108 1.46479 42.2108 2.3276Z" fill="#FBF1CE"/>
</svg>
