<svg width="32" height="33" viewBox="0 0 32 33" fill="none" xmlns="http://www.w3.org/2000/svg">
<path fill-rule="evenodd" clip-rule="evenodd" d="M6 2.07617C4.93913 2.07617 3.92172 2.4976 3.17157 3.24774C2.42143 3.99789 2 5.01531 2 6.07617V26.0762C2 27.137 2.42143 28.1545 3.17157 28.9046C3.92172 29.6547 4.93913 30.0762 6 30.0762H26C27.0609 30.0762 28.0783 29.6547 28.8284 28.9046C29.5786 28.1545 30 27.137 30 26.0762V6.07617C30 5.01531 29.5786 3.99789 28.8284 3.24774C28.0783 2.4976 27.0609 2.07617 26 2.07617H6ZM8.204 10.6702C8.83787 10.6702 9.44577 10.4184 9.89398 9.97016C10.3422 9.52194 10.594 8.91404 10.594 8.28017C10.594 7.64631 10.3422 7.0384 9.89398 6.59019C9.44577 6.14197 8.83787 5.89017 8.204 5.89017C7.57013 5.89017 6.96223 6.14197 6.51401 6.59019C6.0658 7.0384 5.814 7.64631 5.814 8.28017C5.814 8.91404 6.0658 9.52194 6.51401 9.97016C6.96223 10.4184 7.57013 10.6702 8.204 10.6702ZM10.204 25.7022V12.5442H6.204V25.7022H10.204ZM12.86 12.5442H16.86V14.3062C17.45 13.3822 18.746 12.1382 21.156 12.1382C24.032 12.1382 25.594 14.0442 25.594 17.6702C25.594 17.8442 25.61 18.6382 25.61 18.6382V25.7002H21.61V18.6402C21.61 17.6702 21.406 15.7642 19.25 15.7642C17.092 15.7642 16.91 18.1602 16.86 19.7282V25.7002H12.86V12.5442Z" fill="#FBF1CE"/>
</svg>
