<svg width="76" height="77" viewBox="0 0 76 77" fill="none" xmlns="http://www.w3.org/2000/svg">
<path d="M11.1707 67.9187L5.20117 0.960938H70.7987L64.8232 67.9086L37.9601 75.356L11.1707 67.9187Z" fill="#1572B6"/>
<path d="M38.0005 69.6642L59.7074 63.6459L64.8142 6.43573H38.0005V69.6642Z" fill="#33A9DC"/>
<path d="M38.0005 30.6942H48.8673L49.6178 22.2849H38.0005V14.0728H58.5929L58.3958 16.2762L56.377 38.9064H38.0005V30.6942Z" fill="white"/>
<path d="M38.0491 52.0218L38.0129 52.0325L28.8673 49.5631L28.2825 43.0134H20.04L21.1901 55.9079L38.0117 60.5766L38.0491 60.5659V52.0218Z" fill="#EBEBEB"/>
<path d="M48.1694 38.5592L47.1802 49.5566L38.021 52.029V60.5731L54.8562 55.9074L54.9797 54.5198L56.4082 38.5592H48.1694Z" fill="white"/>
<path d="M38.0286 14.0728V22.2849H18.1926L18.0281 20.4395L17.6541 16.2762L17.4575 14.0728H38.0286ZM38.0007 30.6954V38.9075H28.9703L28.8059 37.0622L28.4312 32.8988L28.2353 30.6954H38.0007Z" fill="#EBEBEB"/>
</svg>
