<svg width="76" height="75" viewBox="0 0 76 75" fill="none" xmlns="http://www.w3.org/2000/svg">
<g clip-path="url(#clip0_124_318)">
<path d="M13.4583 0.144659H62.5417C64.3095 0.142993 66.0603 0.489966 67.6939 1.16572C69.3275 1.84147 70.8118 2.83274 72.0619 4.0828C73.3119 5.33285 74.3032 6.81715 74.9789 8.45074C75.6547 10.0843 76.0017 11.8352 76 13.603V60.7863C76.0017 62.5542 75.6547 64.305 74.9789 65.9386C74.3032 67.5722 73.3119 69.0565 72.0619 70.3065C70.8118 71.5566 69.3275 72.5478 67.6939 73.2236C66.0603 73.8994 64.3095 74.2463 62.5417 74.2447H13.4583C11.6905 74.2463 9.93968 73.8994 8.30609 73.2236C6.67249 72.5478 5.1882 71.5566 3.93814 70.3065C2.68809 69.0565 1.69682 67.5722 1.02107 65.9386C0.345313 64.305 -0.00166023 62.5542 5.97257e-06 60.7863V13.603C-0.00166023 11.8352 0.345313 10.0843 1.02107 8.45074C1.69682 6.81715 2.68809 5.33285 3.93814 4.0828C5.1882 2.83274 6.67249 1.84147 8.30609 1.16572C9.93968 0.489966 11.6905 0.142993 13.4583 0.144659Z" fill="#000B1D"/>
<path d="M30.0832 60.9447C34.4554 60.9447 37.9998 57.4003 37.9998 53.028V45.1113H30.0832C25.7109 45.1113 22.1665 48.6557 22.1665 53.028C22.1665 57.4003 25.7109 60.9447 30.0832 60.9447Z" fill="#0ACF83"/>
<path d="M22.1665 37.1946C22.1665 32.8224 25.7109 29.278 30.0832 29.278H37.9998V45.1113H30.0832C25.7109 45.1113 22.1665 41.5669 22.1665 37.1946Z" fill="#A259FF"/>
<path d="M22.1665 21.3613C22.1665 16.9891 25.7109 13.4446 30.0832 13.4446H37.9998V29.278H30.0832C25.7109 29.278 22.1665 25.7336 22.1665 21.3613Z" fill="#F24E1E"/>
<path d="M38 13.4446H45.9167C50.2889 13.4446 53.8333 16.9891 53.8333 21.3613C53.8333 25.7336 50.2889 29.278 45.9167 29.278H38V13.4446Z" fill="#FF7262"/>
<path d="M53.8333 37.1946C53.8333 41.5669 50.2889 45.1113 45.9167 45.1113C41.5444 45.1113 38 41.5669 38 37.1946C38 32.8224 41.5444 29.278 45.9167 29.278C50.2889 29.278 53.8333 32.8224 53.8333 37.1946Z" fill="#1ABCFE"/>
</g>
<defs>
<clipPath id="clip0_124_318">
<rect width="76" height="74.1" fill="white" transform="translate(0 0.144653)"/>
</clipPath>
</defs>
</svg>
