<svg width="76" height="77" viewBox="0 0 76 77" fill="none" xmlns="http://www.w3.org/2000/svg">
<path fill-rule="evenodd" clip-rule="evenodd" d="M37.9999 3.18835C18.2001 3.18835 2.14453 19.2404 2.14453 39.0437C2.14453 54.8862 12.4182 68.3257 26.6646 73.0674C28.456 73.3999 29.1138 72.2896 29.1138 71.3425C29.1138 70.4875 29.0806 67.6631 29.0652 64.667C19.0902 66.836 16.9853 60.4365 16.9853 60.4365C15.3543 56.2922 13.0042 55.1902 13.0042 55.1902C9.75047 52.9648 13.2494 53.0111 13.2494 53.0111C16.8493 53.2635 18.7458 56.706 18.7458 56.706C21.9437 62.1863 27.1337 60.6022 29.1798 59.6866C29.5016 57.3692 30.4308 55.7869 31.4562 54.8915C23.4922 53.986 15.1198 50.911 15.1198 37.1722C15.1198 33.2576 16.521 30.0591 18.8147 27.5475C18.4418 26.645 17.2145 22.9982 19.1614 18.0594C19.1614 18.0594 22.1717 17.0958 29.0236 21.7347C31.8843 20.9397 34.9522 20.5401 37.9999 20.5264C41.0458 20.5401 44.1155 20.9385 46.9816 21.7335C53.8251 17.0946 56.8319 18.0582 56.8319 18.0582C58.7835 22.9964 57.5562 26.6439 57.184 27.5464C59.483 30.0579 60.8741 33.2564 60.8741 37.171C60.8741 50.9425 52.4862 53.9742 44.5021 54.8624C45.7887 55.9751 46.9347 58.1577 46.9347 61.5023C46.9347 66.2998 46.8931 70.161 46.8931 71.3419C46.8931 72.2961 47.5391 73.4141 49.356 73.062C63.5941 68.3156 73.8559 54.8802 73.8559 39.0437C73.8553 19.2416 57.8015 3.18895 37.9999 3.18895V3.18835Z" fill="#FBF4F4"/>
<path d="M15.7246 54.6682C15.6456 54.8464 15.3653 54.8998 15.11 54.7781C14.8488 54.6617 14.7033 54.4189 14.7876 54.2401C14.8648 54.0561 15.1457 54.0056 15.4051 54.1285C15.6664 54.2455 15.8148 54.4907 15.724 54.6688L15.7246 54.6682ZM17.1769 56.2886C17.0065 56.4471 16.6722 56.3735 16.4454 56.1223C16.2103 55.8729 16.1663 55.5387 16.3403 55.3778C16.5172 55.2198 16.8414 55.2946 17.0765 55.544C17.3105 55.797 17.3568 56.1283 17.1775 56.2892L17.1769 56.2886ZM18.5912 58.353C18.3715 58.5062 18.0117 58.3631 17.7896 58.0443C17.5699 57.7249 17.5699 57.3419 17.7956 57.1893C18.017 57.0361 18.3715 57.1745 18.5971 57.4903C18.8156 57.8139 18.8156 58.1969 18.5912 58.3525V58.353ZM20.5274 60.3486C20.3315 60.5654 19.9123 60.5072 19.6059 60.2121C19.293 59.9229 19.2057 59.5115 19.4023 59.2953C19.6018 59.078 20.0227 59.1386 20.3309 59.4319C20.6438 59.7205 20.7382 60.1325 20.5286 60.348L20.5274 60.3486ZM23.1993 61.507C23.112 61.7879 22.7094 61.9155 22.3027 61.7956C21.8972 61.6727 21.6318 61.3444 21.7149 61.0605C21.798 60.7773 22.2036 60.6449 22.6127 60.7726C23.0182 60.8949 23.2836 61.2214 23.1993 61.507ZM26.1342 61.7214C26.1443 62.0171 25.7999 62.2617 25.3742 62.2676C24.9449 62.2777 24.5976 62.0379 24.5934 61.7469C24.5934 61.4483 24.9307 61.2066 25.3593 61.1983C25.7851 61.1906 26.1348 61.4281 26.1348 61.7208L26.1342 61.7214ZM28.8643 61.2571C28.9153 61.545 28.619 61.8413 28.1957 61.9203C27.7801 61.9975 27.3941 61.8182 27.3407 61.5326C27.2896 61.2369 27.5913 60.9406 28.0069 60.864C28.4308 60.791 28.8108 60.965 28.8643 61.2577V61.2571Z" fill="#FBF4F4"/>
</svg>
