<svg width="76" height="77" viewBox="0 0 76 77" fill="none" xmlns="http://www.w3.org/2000/svg">
<path d="M11.3033 67.7585L5.36279 1.13086H70.6373L64.6903 67.7484L37.9603 75.1584L11.3033 67.7585Z" fill="#E44D26"/>
<path d="M38 69.4947L59.5994 63.5061L64.6813 6.57855H38V69.4947Z" fill="#F16529"/>
<path d="M38.0002 31.2898H27.1868L26.4399 22.9215H38.0002V14.7503H17.5093L17.7052 16.9424L19.7133 39.4616H38.0002V31.2898ZM38.0002 52.5122L37.964 52.5223L28.8636 50.0642L28.2823 43.5478H20.0784L21.2232 56.3781L37.9628 61.0248L38.0002 61.0147V52.5122Z" fill="#EBEBEB"/>
<path d="M37.9717 31.2898V39.4616H48.034L47.0857 50.0594L37.9717 52.5193V61.0212L54.7243 56.3781L54.8472 54.9977L56.7674 33.4843L56.9663 31.2898H54.7647H37.9717ZM37.9717 14.7503V22.9215H57.7103L57.8742 21.0856L58.2471 16.9424L58.4424 14.7503H37.9717Z" fill="white"/>
</svg>
