<svg width="76" height="75" viewBox="0 0 76 75" fill="none" xmlns="http://www.w3.org/2000/svg">
<g clip-path="url(#clip0_124_317)">
<path d="M13.4583 0.144659H62.5417C64.3095 0.142993 66.0603 0.489966 67.6939 1.16572C69.3275 1.84147 70.8118 2.83274 72.0619 4.0828C73.3119 5.33285 74.3032 6.81715 74.9789 8.45074C75.6547 10.0843 76.0017 11.8352 76 13.603V60.7863C76.0017 62.5542 75.6547 64.305 74.9789 65.9386C74.3032 67.5722 73.3119 69.0565 72.0619 70.3065C70.8118 71.5566 69.3275 72.5478 67.6939 73.2236C66.0603 73.8994 64.3095 74.2463 62.5417 74.2447H13.4583C11.6905 74.2463 9.93968 73.8994 8.30609 73.2236C6.67249 72.5478 5.1882 71.5566 3.93814 70.3065C2.68809 69.0565 1.69682 67.5722 1.02107 65.9386C0.345313 64.305 -0.00166023 62.5542 5.97257e-06 60.7863V13.603C-0.00166023 11.8352 0.345313 10.0843 1.02107 8.45074C1.69682 6.81715 2.68809 5.33285 3.93814 4.0828C5.1882 2.83274 6.67249 1.84147 8.30609 1.16572C9.93968 0.489966 11.6905 0.142993 13.4583 0.144659Z" fill="#330000"/>
<path d="M36.8283 44.6046H25.0483L22.6416 52.0463C22.6147 52.1819 22.5381 52.3026 22.4268 52.3847C22.3155 52.4667 22.1775 52.5041 22.04 52.4896H16.0866C15.7383 52.4896 15.6433 52.2996 15.7383 51.9196L25.935 22.5646C26.03 22.248 26.125 21.8996 26.2516 21.5196C26.3791 20.841 26.4427 20.1518 26.4416 19.4613C26.4322 19.382 26.453 19.302 26.5 19.2374C26.5469 19.1728 26.6166 19.1284 26.695 19.113H34.8966C35.15 19.113 35.2766 19.208 35.3083 19.3663L46.8666 51.983C46.9616 52.3313 46.8666 52.4896 46.55 52.4896H39.9316C39.8197 52.5004 39.7076 52.4714 39.6149 52.4077C39.5222 52.344 39.455 52.2497 39.425 52.1413L36.8283 44.6046ZM26.885 38.1763H34.9283C34.7383 37.5113 34.485 36.7196 34.2 35.8963C33.915 35.073 33.63 34.123 33.345 33.173C33.06 32.223 32.7433 31.2413 32.4266 30.2596C32.11 29.278 31.825 28.3596 31.5716 27.4413C31.3183 26.523 31.0966 25.7313 30.875 24.9713H30.8116C30.527 26.3515 30.1676 27.7152 29.735 29.0563C29.26 30.5763 28.785 32.1596 28.2783 33.743C27.835 35.358 27.36 36.8463 26.885 38.1763Z" fill="#FF9A00"/>
<path d="M53.7699 24.528C53.2501 24.5394 52.7333 24.4472 52.2494 24.2569C51.7656 24.0667 51.3244 23.7821 50.9516 23.4197C50.2261 22.6264 49.8397 21.5808 49.8749 20.5063C49.8562 19.9828 49.9481 19.4613 50.1445 18.9756C50.3409 18.49 50.6375 18.0513 51.0149 17.688C51.7761 16.9686 52.786 16.5714 53.8333 16.5797C55.0683 16.5797 56.0183 16.9597 56.7149 17.688C57.4165 18.4558 57.7913 19.4667 57.7599 20.5063C57.7792 21.0413 57.6911 21.5748 57.5008 22.0752C57.3104 22.5756 57.0216 23.0328 56.6516 23.4197C56.2785 23.7997 55.8282 24.0953 55.331 24.2865C54.8339 24.4777 54.3016 24.5601 53.7699 24.528ZM50.2233 52.0147V27.6313C50.2233 27.3147 50.3499 27.188 50.6349 27.188H56.9049C57.1899 27.188 57.3166 27.3463 57.3166 27.6313V52.0147C57.3166 52.363 57.1899 52.5213 56.9049 52.5213H50.6983C50.6317 52.5268 50.5648 52.5172 50.5025 52.4932C50.4402 52.4692 50.3841 52.4314 50.3384 52.3827C50.2927 52.334 50.2587 52.2756 50.2387 52.2119C50.2188 52.1481 50.2135 52.0807 50.2233 52.0147Z" fill="#FF9A00"/>
</g>
<defs>
<clipPath id="clip0_124_317">
<rect width="76" height="74.1" fill="white" transform="translate(0 0.144653)"/>
</clipPath>
</defs>
</svg>
