<svg width="76" height="77" viewBox="0 0 76 77" fill="none" xmlns="http://www.w3.org/2000/svg">
<g clip-path="url(#clip0_124_319)">
<path d="M9.40812 68.4596L3.26855 3.90509L72.7318 4.03675L66.2398 68.4596L38.2769 76.0177L9.40812 68.4596Z" fill="#EFC700"/>
<path d="M39.5449 69.69V9.18018L68.7748 9.26795L63.3903 63.4058L39.5449 69.69Z" fill="#FFE23F"/>
<path d="M35.9338 15.9576H27.9434V56.2706L21.7286 55.2369V49.8102L14.3301 48.7765V60.9221L35.9338 65.832V15.9576ZM41.9278 15.9576H64.0483L62.5686 23.6843H50.3723V36.3638H62.5686L61.0889 61.9558L41.9278 65.832V57.8211L54.8741 53.9449L55.6217 43.3498L41.9278 45.0812V15.9576Z" fill="white"/>
</g>
<defs>
<clipPath id="clip0_124_319">
<rect width="76" height="76" fill="white" transform="translate(0 0.144653)"/>
</clipPath>
</defs>
</svg>
