<svg width="76" height="77" viewBox="0 0 76 77" fill="none" xmlns="http://www.w3.org/2000/svg">
<g clip-path="url(#clip0_124_322)">
<path d="M37.7625 0.365051L39.7907 4.17455C40.2467 4.87755 40.7407 5.4998 41.3226 6.0793C43.0207 7.77743 44.6334 9.5563 46.0821 11.4611C49.5187 15.9736 51.8367 20.9848 53.4921 26.4046C54.4849 29.7153 55.024 33.1116 55.0644 36.5458C55.2306 46.8129 51.7109 55.6289 44.6144 62.9558C43.4554 64.1148 42.2156 65.1883 40.8856 66.1431C40.1826 66.1431 39.8501 65.6039 39.5604 65.1076C39.0212 64.1979 38.6911 63.16 38.5249 62.1269C38.2755 60.8848 38.1116 59.6427 38.1923 58.3602V57.7807C38.1353 57.6572 37.5155 0.657176 37.7625 0.365051Z" fill="#599636"/>
<path d="M37.7625 0.239178C37.6793 0.0729279 37.5962 0.198803 37.5131 0.279553C37.5535 1.1108 37.2637 1.8518 36.8101 2.55955C36.3113 3.26255 35.6511 3.80168 34.9885 4.38118C31.3072 7.56843 28.4097 11.4183 26.0893 15.7242C23.0018 21.5192 21.4106 27.7298 20.9593 34.2682C20.7527 36.6266 21.7051 44.9486 22.4485 47.3497C24.4767 53.7242 28.12 59.0655 32.8391 63.7015C33.9981 64.8178 35.2378 65.8533 36.5203 66.8484C36.8932 66.8484 36.9336 66.5159 37.0191 66.2689C37.1826 65.7404 37.3072 65.2006 37.392 64.6539L38.2232 58.4457L37.7625 0.239178Z" fill="#6CAC48"/>
<path d="M39.7909 68.6653C39.874 67.7153 40.33 66.9268 40.8264 66.1407C40.3276 65.9341 39.9571 65.5232 39.6674 65.0648C39.418 64.6516 39.2114 64.1552 39.0499 63.6992C38.4704 61.9607 38.3469 60.1367 38.1806 58.3602V57.2843C37.974 57.4506 37.9313 58.8566 37.9313 59.0656C37.8104 60.9432 37.5612 62.8103 37.1855 64.6539C37.062 65.3997 36.9789 66.1431 36.5205 66.8057C36.5205 66.8888 36.5205 66.9719 36.5609 67.0954C37.3066 69.2899 37.5109 71.5248 37.6368 73.8024V74.6337C37.6368 75.6264 37.5964 75.4174 38.4205 75.7499C38.753 75.8734 39.1235 75.9162 39.456 76.1632C39.7054 76.1632 39.7458 75.9566 39.7458 75.7903L39.6223 74.4247V70.6152C39.5819 69.9502 39.7054 69.2899 39.7885 68.6677L39.7909 68.6653Z" fill="#C2BFBF"/>
</g>
<defs>
<clipPath id="clip0_124_322">
<rect width="76" height="76" fill="white" transform="translate(0 0.158447)"/>
</clipPath>
</defs>
</svg>
