<svg width="76" height="77" viewBox="0 0 76 77" fill="none" xmlns="http://www.w3.org/2000/svg">
<g clip-path="url(#clip0_124_321)">
<path d="M34.8078 1.15879C36.7078 0.0829111 39.1303 0.0781611 40.9828 1.15879L69.3498 17.1497C71.1239 18.1472 72.3114 20.1255 72.2948 22.1704V54.2329C72.3067 56.3633 71.0028 58.3844 69.1313 59.3629L40.9163 75.2802C39.9513 75.8135 38.861 76.0786 37.7589 76.0482C36.6567 76.0177 35.5828 75.6926 34.6487 75.1068L26.1818 70.2143C25.6047 69.8699 24.9563 69.5968 24.5478 69.0387C24.9088 68.5542 25.5501 68.4924 26.0726 68.2787C27.2506 67.9034 28.3288 67.3287 29.4118 66.7207C29.6849 66.5307 30.0198 66.6019 30.2811 66.7729L37.5011 70.9482C38.0164 71.245 38.5389 70.8532 38.9807 70.6038L66.6851 54.9692C67.0271 54.8029 67.2171 54.4419 67.1886 54.0667V22.3129C67.2266 21.8854 66.9819 21.4959 66.5948 21.3225L38.4511 5.47416C38.2889 5.36198 38.0965 5.30169 37.8993 5.30127C37.702 5.30085 37.5094 5.36031 37.3467 5.47179L9.24332 21.3534C8.86332 21.5268 8.60207 21.9115 8.64957 22.339V54.0928C8.61632 54.468 8.81582 54.8219 9.16019 54.9834L16.6699 59.2228C18.0807 59.9828 19.8121 60.4103 21.3653 59.8522C22.045 59.596 22.6302 59.1382 23.0424 58.5401C23.4545 57.942 23.674 57.2322 23.6714 56.5058L23.6786 24.942C23.6453 24.4742 24.0871 24.087 24.5407 24.1345H28.1507C28.6257 24.1227 28.9986 24.6262 28.9344 25.0964L28.9273 56.8597C28.9297 59.6812 27.7707 62.7497 25.1606 64.1343C21.9448 65.7968 17.9691 65.4477 14.7913 63.8493L6.71632 59.3843C4.81632 58.4343 3.54094 56.3823 3.55282 54.2543V22.1918C3.56072 21.1497 3.8472 20.1287 4.38256 19.2346C4.91793 18.3405 5.68269 17.6059 6.59757 17.1069L34.8078 1.15879ZM42.9873 23.384C47.0889 23.1465 51.4803 23.2273 55.1711 25.2484C58.0282 26.7969 59.6123 30.0459 59.6646 33.2237C59.5838 33.6512 59.1373 33.8887 58.7288 33.8578C57.5413 33.8554 56.3491 33.8744 55.1568 33.8507C54.6509 33.8697 54.3588 33.4042 54.2947 32.9577C53.9527 31.4377 53.1238 29.9343 51.6941 29.2004C49.4996 28.1008 46.9536 28.1554 44.5596 28.1792C42.8116 28.2742 40.9329 28.4238 39.4533 29.4498C38.3133 30.2288 37.9713 31.8248 38.3774 33.0645C38.7574 33.9742 39.8096 34.2663 40.6669 34.537C45.6117 35.829 50.8486 35.7245 55.7007 37.4037C57.7076 38.0972 59.6717 39.4462 60.3604 41.548C61.2582 44.3648 60.8663 47.7325 58.8642 49.9935C57.2397 51.8555 54.8742 52.8435 52.5111 53.4183C49.3689 54.1189 46.1104 54.1355 42.9208 53.822C39.9212 53.48 36.8004 52.6915 34.4848 50.649C32.5041 48.9295 31.5398 46.2505 31.6348 43.6665C31.6586 43.2295 32.0932 42.9255 32.5136 42.9612H36.0761C36.5558 42.9279 36.9073 43.3412 36.9311 43.7924C37.1519 45.2174 37.6958 46.7612 38.9593 47.5924C41.3961 49.1647 44.4527 49.0554 47.2409 49.1005C49.5518 48.9984 52.1453 48.9675 54.0334 47.438C55.0309 46.5664 55.3231 45.1105 55.0547 43.8565C54.7626 42.7973 53.6297 42.3057 52.6797 41.9565C47.7991 40.4128 42.5028 40.9733 37.6697 39.2253C35.7079 38.5318 33.8103 37.2208 33.0574 35.2044C32.0053 32.3544 32.4874 28.8228 34.7033 26.6378C36.8408 24.4647 39.9758 23.6263 42.9446 23.327L42.9873 23.384Z" fill="#8CC84B"/>
</g>
<defs>
<clipPath id="clip0_124_321">
<rect width="76" height="76" fill="white" transform="translate(0 0.144653)"/>
</clipPath>
</defs>
</svg>
