<svg width="76" height="75" viewBox="0 0 76 75" fill="none" xmlns="http://www.w3.org/2000/svg">
<g clip-path="url(#clip0_124_316)">
<path d="M13.4583 0.144659H62.5417C64.3095 0.142993 66.0603 0.489966 67.6939 1.16572C69.3275 1.84147 70.8118 2.83274 72.0619 4.0828C73.3119 5.33285 74.3032 6.81715 74.9789 8.45074C75.6547 10.0843 76.0017 11.8352 76 13.603V60.7863C76.0017 62.5542 75.6547 64.305 74.9789 65.9386C74.3032 67.5722 73.3119 69.0565 72.0619 70.3065C70.8118 71.5566 69.3275 72.5478 67.6939 73.2236C66.0603 73.8994 64.3095 74.2463 62.5417 74.2447H13.4583C11.6905 74.2463 9.93968 73.8994 8.30609 73.2236C6.67249 72.5478 5.1882 71.5566 3.93814 70.3065C2.68809 69.0565 1.69682 67.5722 1.02107 65.9386C0.345313 64.305 -0.00166023 62.5542 5.97257e-06 60.7863V13.603C-0.00166023 11.8352 0.345313 10.0843 1.02107 8.45074C1.69682 6.81715 2.68809 5.33285 3.93814 4.0828C5.1882 2.83274 6.67249 1.84147 8.30609 1.16572C9.93968 0.489966 11.6905 0.142993 13.4583 0.144659Z" fill="#001E36"/>
<path d="M17.1001 52.1097V19.5247C17.1001 19.303 17.1951 19.1763 17.4168 19.1763C17.9551 19.1763 18.4618 19.1763 19.1901 19.1447C19.9184 19.113 20.7418 19.113 21.5968 19.0813C22.4518 19.0497 23.3701 19.0497 24.3518 19.018C25.3334 18.9863 26.2834 18.9863 27.2334 18.9863C29.8301 18.9863 31.9834 19.303 33.7568 19.968C35.3464 20.5078 36.7959 21.3949 38.0001 22.5647C39.0205 23.5884 39.8089 24.8195 40.3118 26.1747C40.7911 27.4943 41.0376 28.8873 41.0401 30.2913C41.0401 33.0147 40.4068 35.263 39.1401 37.0363C37.8675 38.8072 36.0909 40.1535 34.0418 40.8997C31.8884 41.6913 29.5134 41.9763 26.9168 41.9763C26.1568 41.9763 25.6501 41.9763 25.3334 41.9447C25.0168 41.913 24.5734 41.913 23.9718 41.913V52.078C23.9788 52.1301 23.9754 52.1831 23.9616 52.2338C23.9478 52.2846 23.9239 52.332 23.8914 52.3734C23.8589 52.4147 23.8185 52.4491 23.7724 52.4745C23.7264 52.5 23.6757 52.5159 23.6234 52.5213H17.4801C17.2268 52.5213 17.1001 52.3947 17.1001 52.1097ZM24.0034 25.288V35.928C24.4468 35.9597 24.8584 35.9913 25.2384 35.9913H26.9168C28.153 35.9928 29.3818 35.8005 30.5584 35.4213C31.5679 35.1245 32.4698 34.5415 33.1551 33.743C33.8201 32.9513 34.1368 31.8747 34.1368 30.4813C34.1666 29.4918 33.9139 28.5142 33.4084 27.663C32.8804 26.8408 32.1039 26.2085 31.1918 25.858C30.003 25.3924 28.7309 25.1768 27.4551 25.2247C26.6318 25.2247 25.9034 25.2247 25.3018 25.2563C24.8689 25.228 24.4344 25.2386 24.0034 25.288Z" fill="#31A8FF"/>
<path d="M60.7999 33.9963C59.8438 33.4927 58.8199 33.1301 57.7599 32.9197C56.5958 32.656 55.4068 32.518 54.2132 32.508C53.5724 32.4859 52.9318 32.5606 52.3132 32.7297C51.9188 32.8117 51.5689 33.0375 51.3316 33.363C51.1716 33.6199 51.084 33.9154 51.0782 34.218C51.093 34.5193 51.204 34.8078 51.3949 35.0413C51.6951 35.3934 52.0607 35.6837 52.4716 35.8963C53.1999 36.2763 53.9599 36.6247 54.7199 36.9413C56.4308 37.5173 58.0677 38.2932 59.5966 39.253C60.6365 39.9069 61.4965 40.8104 62.0982 41.8813C62.6071 42.8916 62.8574 44.0123 62.8266 45.143C62.8523 46.6397 62.4215 48.1088 61.5916 49.3547C60.7083 50.6188 59.4759 51.5981 58.0449 52.173C56.4932 52.838 54.5932 53.1863 52.3132 53.1863C50.8676 53.1922 49.4249 53.0543 48.0066 52.7747C46.8897 52.5817 45.8035 52.2409 44.7766 51.7613C44.6662 51.7059 44.5744 51.6195 44.5125 51.5126C44.4506 51.4057 44.4213 51.283 44.4282 51.1597V45.6497C44.4255 45.5955 44.4355 45.5415 44.4576 45.492C44.4796 45.4425 44.5129 45.3989 44.5549 45.3647C44.5995 45.3387 44.6513 45.3277 44.7026 45.3334C44.754 45.3391 44.8021 45.3612 44.8399 45.3963C46.0597 46.1154 47.3847 46.639 48.7666 46.948C49.9867 47.2655 51.2425 47.4251 52.5032 47.423C53.7066 47.423 54.5616 47.2647 55.1316 46.9797C55.3858 46.8622 55.6013 46.6747 55.7527 46.4391C55.9042 46.2036 55.9853 45.9297 55.9866 45.6497C55.9866 45.2063 55.7332 44.7947 55.2266 44.383C54.7199 43.9713 53.6749 43.4963 52.1232 42.8947C50.5314 42.3338 49.0198 41.5673 47.6266 40.6147C46.6343 39.9074 45.8121 38.9879 45.2199 37.923C44.7145 36.9228 44.4643 35.8132 44.4916 34.693C44.4962 33.3418 44.8684 32.0172 45.5682 30.8613C46.3727 29.5901 47.5273 28.5784 48.8932 27.948C50.3816 27.188 52.2499 26.8397 54.4982 26.8397C55.8123 26.84 57.1246 26.9353 58.4249 27.1247C59.3599 27.2512 60.275 27.4959 61.1482 27.853C61.2874 27.9023 61.4013 28.0048 61.4649 28.138C61.5014 28.2616 61.5227 28.3892 61.5282 28.518V33.6797C61.5287 33.7412 61.5147 33.802 61.4871 33.857C61.4596 33.9121 61.4194 33.9598 61.3699 33.9963C61.1857 34.0626 60.9841 34.0626 60.7999 33.9963Z" fill="#31A8FF"/>
</g>
<defs>
<clipPath id="clip0_124_316">
<rect width="76" height="74.1" fill="white" transform="translate(0 0.144653)"/>
</clipPath>
</defs>
</svg>
