<svg width="76" height="77" viewBox="0 0 76 77" fill="none" xmlns="http://www.w3.org/2000/svg">
<path d="M37.9997 44.9272C41.738 44.9272 44.7685 41.8967 44.7685 38.1585C44.7685 34.4202 41.738 31.3897 37.9997 31.3897C34.2614 31.3897 31.231 34.4202 31.231 38.1585C31.231 41.8967 34.2614 44.9272 37.9997 44.9272Z" fill="#61DAFB"/>
<path d="M63.7092 26.996C62.4029 26.521 61.0373 26.046 59.6123 25.6303C59.9685 24.2053 60.2654 22.7803 60.5029 21.4147C61.7498 13.5772 60.3842 8.05533 56.5842 5.91783C55.4561 5.26471 54.2092 4.96783 52.7842 4.96783C48.6279 4.96783 43.3435 8.05533 37.9998 13.221C32.656 8.05533 27.3717 4.96783 23.2154 4.96783C21.7904 4.96783 20.5436 5.26471 19.4154 5.91783C15.6154 8.11471 14.2498 13.6366 15.4967 21.4147C15.7342 22.7803 16.0311 24.2053 16.3873 25.6303C14.9623 26.046 13.5967 26.4616 12.2904 26.996C4.86856 29.846 0.831055 33.7647 0.831055 38.1585C0.831055 42.5522 4.92793 46.471 12.2904 49.321C13.5967 49.796 14.9623 50.271 16.3873 50.6866C16.0311 52.1116 15.7342 53.5366 15.4967 54.9022C14.2498 62.7397 15.6154 68.2616 19.4154 70.3991C20.5436 71.0522 21.7904 71.3491 23.2154 71.3491C27.431 71.3491 32.7154 68.2616 37.9998 63.096C43.3435 68.2616 48.6279 71.3491 52.7842 71.3491C54.2092 71.3491 55.4561 71.0522 56.5842 70.3991C60.3842 68.2022 61.7498 62.6803 60.5029 54.9022C60.2654 53.5366 59.9685 52.1116 59.6123 50.6866C61.0373 50.271 62.4029 49.8553 63.7092 49.321C71.1311 46.471 75.1685 42.5522 75.1685 38.1585C75.1685 33.7647 71.1311 29.846 63.7092 26.996ZM54.9217 8.88658C57.356 10.3116 58.1873 14.7053 57.1779 20.9397C56.9998 22.1866 56.7029 23.4928 56.3467 24.8585C53.2592 24.146 49.9935 23.671 46.5498 23.3741C44.5311 20.5241 42.4529 17.971 40.3748 15.6553C44.7686 11.321 49.2217 8.35221 52.8435 8.35221C53.6154 8.35221 54.3279 8.53033 54.9217 8.88658ZM48.2717 44.096C47.2029 45.996 45.956 47.896 44.6498 49.796C42.4529 49.9741 40.2561 50.0335 37.9998 50.0335C35.6842 50.0335 33.4873 49.9741 31.3498 49.796C30.0436 47.896 28.8561 45.996 27.7873 44.096C26.6592 42.1366 25.5904 40.1178 24.6404 38.1585C25.5904 36.1991 26.6592 34.1803 27.7873 32.221C28.8561 30.321 30.1029 28.421 31.4092 26.521C33.6061 26.3428 35.8029 26.2835 38.0592 26.2835C40.3748 26.2835 42.5717 26.3428 44.7092 26.521C46.0154 28.421 47.2029 30.321 48.2717 32.221C49.3998 34.1803 50.4685 36.1991 51.4185 38.1585C50.4092 40.1178 49.3998 42.0772 48.2717 44.096ZM53.1998 42.1366C54.0904 44.2147 54.8029 46.2335 55.4561 48.2522C53.4373 48.7272 51.2998 49.0835 49.0435 49.3803C49.756 48.2522 50.5279 47.0647 51.181 45.8178C51.8935 44.571 52.5467 43.3241 53.1998 42.1366ZM37.9998 58.2272C36.5748 56.6835 35.2092 55.021 33.9029 53.2991C35.2686 53.3585 36.6342 53.4178 37.9998 53.4178C39.3654 53.4178 40.7311 53.3585 42.0967 53.2991C40.7904 55.021 39.4248 56.6835 37.9998 58.2272ZM26.9561 49.321C24.6998 49.0241 22.5623 48.6678 20.5436 48.1928C21.1967 46.2335 21.9092 44.1553 22.7998 42.0772C23.4529 43.2647 24.1061 44.5116 24.8186 45.6991C25.5311 47.0053 26.2436 48.1335 26.9561 49.321ZM22.7998 34.1803C21.9092 32.1022 21.1967 30.0835 20.5436 28.0647C22.5623 27.5897 24.6998 27.2335 26.9561 26.9366C26.2436 28.0647 25.4717 29.2522 24.8186 30.4991C24.1061 31.746 23.4529 32.9928 22.7998 34.1803ZM37.9998 18.0897C39.4248 19.6335 40.7904 21.296 42.0967 23.0178C40.7311 22.9585 39.3654 22.8991 37.9998 22.8991C36.6342 22.8991 35.2686 22.9585 33.9029 23.0178C35.2092 21.296 36.5748 19.6335 37.9998 18.0897ZM51.181 30.5585L49.0435 26.996C51.2998 27.2928 53.4373 27.6491 55.4561 28.1241C54.8029 30.0835 54.0904 32.1616 53.1998 34.2397C52.5467 32.9928 51.8935 31.746 51.181 30.5585ZM18.8217 20.9397C17.8123 14.7053 18.6436 10.3116 21.0779 8.88658C21.6717 8.53033 22.3842 8.35221 23.1561 8.35221C26.7186 8.35221 31.1717 11.2616 35.6248 15.6553C33.5467 17.9116 31.4685 20.5241 29.4498 23.3741C26.0061 23.671 22.7404 24.2053 19.6529 24.8585C19.2967 23.4928 19.0592 22.1866 18.8217 20.9397ZM4.15605 38.1585C4.15605 35.3678 7.54043 32.3991 13.4779 30.2022C14.6654 29.7272 15.9717 29.3116 17.2779 28.9553C18.2279 31.9241 19.4154 35.071 20.8404 38.2178C19.4154 41.3647 18.1686 44.4522 17.2779 47.421C9.08418 45.046 4.15605 41.4835 4.15605 38.1585ZM21.0779 67.4303C18.6436 66.0053 17.8123 61.6116 18.8217 55.3772C18.9998 54.1303 19.2967 52.8241 19.6529 51.4585C22.7404 52.171 26.0061 52.646 29.4498 52.9428C31.4685 55.7928 33.5467 58.346 35.6248 60.6616C31.2311 64.996 26.7779 67.9647 23.1561 67.9647C22.3842 67.9647 21.6717 67.7866 21.0779 67.4303ZM57.1779 55.3772C58.1873 61.6116 57.356 66.0053 54.9217 67.4303C54.3279 67.7866 53.6154 67.9647 52.8435 67.9647C49.281 67.9647 44.8279 65.0553 40.3748 60.6616C42.4529 58.4053 44.5311 55.7928 46.5498 52.9428C49.9935 52.646 53.2592 52.1116 56.3467 51.4585C56.7029 52.8241 56.9404 54.1303 57.1779 55.3772ZM62.5217 46.1147C61.3342 46.5897 60.0279 47.0053 58.7217 47.3616C57.7717 44.3928 56.5842 41.246 55.1592 38.0991C56.5842 34.9522 57.831 31.8647 58.7217 28.896C66.9154 31.271 71.8435 34.8335 71.8435 38.1585C71.8435 40.9491 68.3998 43.9178 62.5217 46.1147Z" fill="#61DAFB"/>
</svg>
