<svg width="76" height="77" viewBox="0 0 76 77" fill="none" xmlns="http://www.w3.org/2000/svg">
<path d="M2.17063 26.9027C2.17063 26.9027 0.373354 25.6018 2.53282 23.8669L7.5607 19.3579C7.5607 19.3579 9.00113 17.8385 10.5229 19.1632L56.9393 54.3892V71.2814C56.9393 71.2814 56.9162 73.9343 53.5211 73.6421L2.17063 26.9027Z" fill="#2489CA"/>
<path d="M14.1366 37.7897L2.17076 48.6928C2.17076 48.6928 0.941699 49.6089 2.17076 51.2489L7.72589 56.3118C7.72589 56.3118 9.0452 57.7338 10.9963 56.117L23.6782 46.4757L14.1366 37.7897Z" fill="#1070B3"/>
<path d="M35.1406 37.88L57.0814 21.0858L56.9395 4.28441C56.9395 4.28441 56.0026 0.617407 52.8765 2.5275L23.6782 29.1637L35.1406 37.88Z" fill="#0877B9"/>
<path d="M53.5207 73.6629C54.7943 74.971 56.3392 74.5417 56.3392 74.5417L73.4374 66.0974C75.6266 64.6011 75.3202 62.7457 75.3202 62.7457V12.3096C75.3202 10.0919 73.0568 9.32656 73.0568 9.32656L58.2362 2.16535C54.9985 0.159064 52.8765 2.52753 52.8765 2.52753C52.8765 2.52753 55.6036 0.558064 56.9395 4.28503V70.9733C56.9395 71.4322 56.8421 71.8817 56.6474 72.2878C56.2579 73.0787 55.4088 73.8138 53.3794 73.5056L53.5207 73.6629Z" fill="#3C99D4"/>
</svg>
